<?xml version="1.0" encoding="UTF-8" standalone="no"?>
<svg width="91px" height="96px" viewBox="0 0 91 96" version="1.1" xmlns="http://www.w3.org/2000/svg" xmlns:xlink="http://www.w3.org/1999/xlink" xmlns:sketch="http://www.bohemiancoding.com/sketch/ns">
    <!-- Generator: Sketch 3.5.2 (25235) - http://www.bohemiancoding.com/sketch -->
    <title>noun_124003_cc</title>
    <desc>Created with Sketch.</desc>
    <defs></defs>
    <g id="Page-1" stroke="none" stroke-width="1" fill="none" fill-rule="evenodd" sketch:type="MSPage">
        <g id="noun_124003_cc" sketch:type="MSLayerGroup" fill="#000000">
            <path d="M74.2,0.4 L17.8,0.4 C8.5,0.4 0.9,8 0.9,17.3 L0.9,73.7 C0.9,82.3 7.3,89.4 15.6,90.5 L15.6,95.7 L15.7,95.7 L20.7,90.7 L21,90.7 L26,95.7 L26.1,95.7 L26.1,90.7 L74.1,90.7 C83.4,90.7 91,83.1 91,73.8 L91,17.3 C91.1,8 83.5,0.4 74.2,0.4 L74.2,0.4 Z M26.2,20.9 L41.3,20.9 L41.3,10.5 L51.3,10.5 L51.3,20.9 L66.4,20.9 L66.4,28.4 L51.3,28.4 L51.3,57 L41.3,57 L41.3,28.4 L26.2,28.4 L26.2,20.9 L26.2,20.9 Z M88.4,72.3 C88.4,80.7 81.6,87.6 73.2,87.7 L73.2,87.7 L26.2,87.7 L26.2,79.9 L28.3,79.9 L28.3,79.3 L26.2,79.3 L15.6,79.3 L13.3,79.3 L13.3,79.9 L15.6,79.9 L15.6,87.6 C11,87.3 7.3,83.4 7.3,78.7 C7.3,73.8 11.3,69.8 16.2,69.8 L16.2,69.8 L16.2,69.8 L72,69.8 C79.9,69.8 86.5,64.4 88.4,57 L88.4,72.3 L88.4,72.3 Z" id="Shape" sketch:type="MSShapeGroup"></path>
        </g>
    </g>
</svg>