<?xml version="1.0" encoding="UTF-8" standalone="no"?>
<svg width="78px" height="90px" viewBox="0 0 78 90" version="1.1" xmlns="http://www.w3.org/2000/svg" xmlns:xlink="http://www.w3.org/1999/xlink" xmlns:sketch="http://www.bohemiancoding.com/sketch/ns">
    <!-- Generator: Sketch 3.5.1 (25234) - http://www.bohemiancoding.com/sketch -->
    <title>Shape</title>
    <desc>Created with Sketch.</desc>
    <defs></defs>
    <g id="Page-1" stroke="none" stroke-width="1" fill="none" fill-rule="evenodd" sketch:type="MSPage">
        <g id="noun_41003_cc" sketch:type="MSLayerGroup" fill="#000000">
            <path d="M50.535,62.323 L50.535,57.427 C53.638,53.648 55.527,48.519 56.954,43.448 C57.877,43.516 59.458,42.533 59.807,41.079 C59.851,40.912 59.875,40.732 59.9,40.561 C60.504,39.801 60.996,38.8 61.274,37.634 C61.676,35.972 61.553,34.356 61.048,33.157 C61.151,33.038 61.265,32.921 61.35,32.803 C63.719,29.495 62.053,16.555 58.262,9.472 C55.076,3.524 45.479,-0.679 39.524,0.091 C36.149,0.524 34.505,2.49 33.75,3.862 C31.338,2.504 27.93,2.327 23.883,6.467 C17.863,12.621 14.638,25.517 16.642,30.793 C16.844,31.325 17.118,31.831 17.426,32.32 C16.546,33.523 16.223,35.543 16.721,37.634 C17.009,38.801 17.503,39.801 18.105,40.561 C18.123,40.732 18.153,40.912 18.193,41.079 C18.536,42.534 20.127,43.517 21.042,43.448 C22.472,48.519 24.362,53.648 27.464,57.427 L27.464,62.323 C10.937,64.592 0.316,76.022 0.316,89.709 C0.316,90.097 77.684,90.097 77.684,89.709 C77.684,76.022 67.063,64.592 50.535,62.323 L50.535,62.323 Z" id="Shape" sketch:type="MSShapeGroup"></path>
        </g>
    </g>
</svg>