<?xml version="1.0" encoding="UTF-8" standalone="no"?>
<svg width="100px" height="100px" viewBox="0 0 100 100" version="1.1" xmlns="http://www.w3.org/2000/svg" xmlns:xlink="http://www.w3.org/1999/xlink" xmlns:sketch="http://www.bohemiancoding.com/sketch/ns">
    <!-- Generator: Sketch 3.5.1 (25234) - http://www.bohemiancoding.com/sketch -->
    <title>noun_26016_cc</title>
    <desc>Created with Sketch.</desc>
    <defs></defs>
    <g id="Page-1" stroke="none" stroke-width="1" fill="none" fill-rule="evenodd" sketch:type="MSPage">
        <g id="noun_26016_cc" sketch:type="MSLayerGroup" fill="#000000">
            <path d="M97.48,89.957 C94.668,83.634 80.943,79.45 71.824,75.522 C62.705,71.594 63.951,69.212 63.623,65.955 C63.567,65.396 63.535,64.792 63.519,64.177 C66.293,61.373 68.467,57.551 70.015,53.556 C70.015,53.556 70.102,53.339 70.127,53.273 C70.476,52.345 70.787,51.377 71.053,50.39 C73.143,49.978 74.361,47.758 74.827,45.706 C75.297,44.875 76.274,42.828 76.05,40.505 C75.824,38.168 75.019,36.815 74.015,36.059 C74.161,34.986 74.244,34.027 74.244,33.204 C74.244,29.077 75.898,16.4 71.412,11.734 C69.034,9.26 66.756,6.686 63.536,4.787 L63.886,3.389 L60.409,3.301 C60.319,3.267 60.225,3.237 60.134,3.205 L60.595,1.454 L57.496,2.42 L58.464,0 L53.709,1.938 C53.168,1.901 52.612,1.875 52.034,1.865 C45.089,1.75 39.103,4.387 34.841,8.124 C33.368,8.837 30.779,10.067 30.779,10.067 L31.752,11.395 C31.693,11.472 31.633,11.55 31.574,11.627 L27.971,13.068 L29.968,14.248 C29.923,14.344 29.879,14.44 29.836,14.538 L26.713,17.037 L29.029,16.706 C26.846,23.61 26.713,33.681 26.713,34.558 C26.713,34.685 26.753,35.042 26.825,35.571 C25.452,36.159 24.235,37.541 23.95,40.504 C23.726,42.827 24.703,44.875 25.173,45.705 C25.646,47.793 26.899,50.054 29.056,50.409 C29.324,51.401 29.638,52.374 29.992,53.311 C30.015,53.372 30.039,53.432 30.063,53.491 L30.095,53.572 C31.677,57.646 33.912,61.542 36.769,64.357 C36.752,64.91 36.721,65.45 36.67,65.954 C36.342,69.211 37.301,71.593 28.182,75.521 C19.063,79.45 5.338,83.634 2.526,89.957 C-0.287,96.28 0.837,100 0.837,100 L99.158,100 C99.159,100 100.292,96.28 97.48,89.957 L97.48,89.957 Z" id="Shape" sketch:type="MSShapeGroup"></path>
        </g>
    </g>
</svg>